<?xml version="1.0" encoding="iso-8859-1"?>
<!DOCTYPE svg PUBLIC "-//W3C//DTD SVG 1.0//EN" "http://www.w3.org/TR/2001/REC-SVG-20010904/DTD/svg10.dtd">
<svg width="905" height="692" xmlns="http://www.w3.org/2000/svg" xmlns:xlink="http://www.w3.org/1999/xlink">
<g style="stroke:black;fill:lightgreen" transform="translate(30,30)">
<line x1="513" y1="118" x2="513" y2="126" style="stroke:blue; stroke-width:1"/>
<line x1="513" y1="126" x2="535" y2="126" style="stroke:blue; stroke-width:1"/>
<line x1="513" y1="118" x2="513" y2="110" style="stroke:blue; stroke-width:1"/>
<line x1="513" y1="110" x2="531" y2="110" style="stroke:blue; stroke-width:1"/>
<line x1="582" y1="55" x2="582" y2="63" style="stroke:blue; stroke-width:1"/>
<line x1="582" y1="63" x2="582" y2="63" style="stroke:blue; stroke-width:1"/>
<line x1="582" y1="55" x2="582" y2="47" style="stroke:blue; stroke-width:1"/>
<line x1="582" y1="47" x2="582" y2="47" style="stroke:blue; stroke-width:1"/>
<line x1="579" y1="24" x2="579" y2="32" style="stroke:blue; stroke-width:1"/>
<line x1="579" y1="32" x2="582" y2="32" style="stroke:blue; stroke-width:1"/>
<line x1="579" y1="24" x2="579" y2="16" style="stroke:blue; stroke-width:1"/>
<line x1="579" y1="16" x2="585" y2="16" style="stroke:blue; stroke-width:1"/>
<line x1="564" y1="59" x2="564" y2="79" style="stroke:blue; stroke-width:1"/>
<line x1="564" y1="79" x2="585" y2="79" style="stroke:blue; stroke-width:1"/>
<line x1="515" y1="77" x2="515" y2="95" style="stroke:blue; stroke-width:1"/>
<line x1="515" y1="95" x2="596" y2="95" style="stroke:blue; stroke-width:1"/>
<line x1="368" y1="150" x2="368" y2="158" style="stroke:blue; stroke-width:1"/>
<line x1="368" y1="158" x2="604" y2="158" style="stroke:blue; stroke-width:1"/>
<line x1="368" y1="150" x2="368" y2="142" style="stroke:blue; stroke-width:1"/>
<line x1="368" y1="142" x2="520" y2="142" style="stroke:blue; stroke-width:1"/>
<line x1="314" y1="149" x2="314" y2="173" style="stroke:blue; stroke-width:1"/>
<line x1="314" y1="173" x2="486" y2="173" style="stroke:blue; stroke-width:1"/>
<line x1="418" y1="197" x2="418" y2="205" style="stroke:blue; stroke-width:1"/>
<line x1="418" y1="205" x2="473" y2="205" style="stroke:blue; stroke-width:1"/>
<line x1="418" y1="197" x2="418" y2="189" style="stroke:blue; stroke-width:1"/>
<line x1="418" y1="189" x2="456" y2="189" style="stroke:blue; stroke-width:1"/>
<line x1="319" y1="209" x2="319" y2="221" style="stroke:blue; stroke-width:1"/>
<line x1="319" y1="221" x2="450" y2="221" style="stroke:blue; stroke-width:1"/>
<line x1="189" y1="208" x2="189" y2="236" style="stroke:blue; stroke-width:1"/>
<line x1="189" y1="236" x2="445" y2="236" style="stroke:blue; stroke-width:1"/>
<line x1="156" y1="292" x2="156" y2="299" style="stroke:blue; stroke-width:1"/>
<line x1="156" y1="299" x2="300" y2="299" style="stroke:blue; stroke-width:1"/>
<line x1="156" y1="292" x2="156" y2="284" style="stroke:blue; stroke-width:1"/>
<line x1="156" y1="284" x2="372" y2="284" style="stroke:blue; stroke-width:1"/>
<line x1="728" y1="481" x2="728" y2="488" style="stroke:blue; stroke-width:1"/>
<line x1="728" y1="488" x2="728" y2="488" style="stroke:blue; stroke-width:1"/>
<line x1="728" y1="481" x2="728" y2="473" style="stroke:blue; stroke-width:1"/>
<line x1="728" y1="473" x2="729" y2="473" style="stroke:blue; stroke-width:1"/>
<line x1="727" y1="449" x2="727" y2="457" style="stroke:blue; stroke-width:1"/>
<line x1="727" y1="457" x2="731" y2="457" style="stroke:blue; stroke-width:1"/>
<line x1="727" y1="449" x2="727" y2="441" style="stroke:blue; stroke-width:1"/>
<line x1="727" y1="441" x2="739" y2="441" style="stroke:blue; stroke-width:1"/>
<line x1="711" y1="485" x2="711" y2="504" style="stroke:blue; stroke-width:1"/>
<line x1="711" y1="504" x2="726" y2="504" style="stroke:blue; stroke-width:1"/>
<line x1="669" y1="502" x2="669" y2="520" style="stroke:blue; stroke-width:1"/>
<line x1="669" y1="520" x2="715" y2="520" style="stroke:blue; stroke-width:1"/>
<line x1="600" y1="519" x2="600" y2="536" style="stroke:blue; stroke-width:1"/>
<line x1="600" y1="536" x2="657" y2="536" style="stroke:blue; stroke-width:1"/>
<line x1="650" y1="418" x2="650" y2="425" style="stroke:blue; stroke-width:1"/>
<line x1="650" y1="425" x2="661" y2="425" style="stroke:blue; stroke-width:1"/>
<line x1="650" y1="418" x2="650" y2="410" style="stroke:blue; stroke-width:1"/>
<line x1="650" y1="410" x2="667" y2="410" style="stroke:blue; stroke-width:1"/>
<line x1="671" y1="355" x2="671" y2="362" style="stroke:blue; stroke-width:1"/>
<line x1="671" y1="362" x2="671" y2="362" style="stroke:blue; stroke-width:1"/>
<line x1="671" y1="355" x2="671" y2="347" style="stroke:blue; stroke-width:1"/>
<line x1="671" y1="347" x2="672" y2="347" style="stroke:blue; stroke-width:1"/>
<line x1="664" y1="323" x2="664" y2="331" style="stroke:blue; stroke-width:1"/>
<line x1="664" y1="331" x2="667" y2="331" style="stroke:blue; stroke-width:1"/>
<line x1="664" y1="323" x2="664" y2="315" style="stroke:blue; stroke-width:1"/>
<line x1="664" y1="315" x2="664" y2="315" style="stroke:blue; stroke-width:1"/>
<line x1="653" y1="359" x2="653" y2="378" style="stroke:blue; stroke-width:1"/>
<line x1="653" y1="378" x2="658" y2="378" style="stroke:blue; stroke-width:1"/>
<line x1="630" y1="376" x2="630" y2="394" style="stroke:blue; stroke-width:1"/>
<line x1="630" y1="394" x2="683" y2="394" style="stroke:blue; stroke-width:1"/>
<line x1="528" y1="559" x2="528" y2="567" style="stroke:blue; stroke-width:1"/>
<line x1="528" y1="567" x2="586" y2="567" style="stroke:blue; stroke-width:1"/>
<line x1="528" y1="559" x2="528" y2="551" style="stroke:blue; stroke-width:1"/>
<line x1="528" y1="551" x2="588" y2="551" style="stroke:blue; stroke-width:1"/>
<line x1="388" y1="546" x2="388" y2="583" style="stroke:blue; stroke-width:1"/>
<line x1="388" y1="583" x2="623" y2="583" style="stroke:blue; stroke-width:1"/>
<line x1="335" y1="572" x2="335" y2="599" style="stroke:blue; stroke-width:1"/>
<line x1="335" y1="599" x2="480" y2="599" style="stroke:blue; stroke-width:1"/>
<line x1="236" y1="593" x2="236" y2="614" style="stroke:blue; stroke-width:1"/>
<line x1="236" y1="614" x2="577" y2="614" style="stroke:blue; stroke-width:1"/>
<line x1="134" y1="612" x2="134" y2="630" style="stroke:blue; stroke-width:1"/>
<line x1="134" y1="630" x2="357" y2="630" style="stroke:blue; stroke-width:1"/>
<line x1="16" y1="612" x2="16" y2="646" style="stroke:blue; stroke-width:1"/>
<line x1="16" y1="646" x2="524" y2="646" style="stroke:blue; stroke-width:1"/>
<line x1="483" y1="260" x2="483" y2="268" style="stroke:blue; stroke-width:1"/>
<line x1="483" y1="268" x2="510" y2="268" style="stroke:blue; stroke-width:1"/>
<line x1="483" y1="260" x2="483" y2="252" style="stroke:blue; stroke-width:1"/>
<line x1="483" y1="252" x2="556" y2="252" style="stroke:blue; stroke-width:1"/>
<line x1="488" y1="98" x2="488" y2="118" style="stroke:blue; stroke-width:1"/>
<line x1="488" y1="118" x2="513" y2="118" style="stroke:blue; stroke-width:1"/>
<line x1="577" y1="40" x2="577" y2="55" style="stroke:blue; stroke-width:1"/>
<line x1="577" y1="55" x2="582" y2="55" style="stroke:blue; stroke-width:1"/>
<line x1="577" y1="40" x2="577" y2="24" style="stroke:blue; stroke-width:1"/>
<line x1="577" y1="24" x2="579" y2="24" style="stroke:blue; stroke-width:1"/>
<line x1="564" y1="59" x2="564" y2="40" style="stroke:blue; stroke-width:1"/>
<line x1="564" y1="40" x2="577" y2="40" style="stroke:blue; stroke-width:1"/>
<line x1="515" y1="77" x2="515" y2="59" style="stroke:blue; stroke-width:1"/>
<line x1="515" y1="59" x2="564" y2="59" style="stroke:blue; stroke-width:1"/>
<line x1="488" y1="98" x2="488" y2="77" style="stroke:blue; stroke-width:1"/>
<line x1="488" y1="77" x2="515" y2="77" style="stroke:blue; stroke-width:1"/>
<line x1="344" y1="124" x2="344" y2="98" style="stroke:blue; stroke-width:1"/>
<line x1="344" y1="98" x2="488" y2="98" style="stroke:blue; stroke-width:1"/>
<line x1="344" y1="124" x2="344" y2="150" style="stroke:blue; stroke-width:1"/>
<line x1="344" y1="150" x2="368" y2="150" style="stroke:blue; stroke-width:1"/>
<line x1="314" y1="149" x2="314" y2="124" style="stroke:blue; stroke-width:1"/>
<line x1="314" y1="124" x2="344" y2="124" style="stroke:blue; stroke-width:1"/>
<line x1="288" y1="179" x2="288" y2="149" style="stroke:blue; stroke-width:1"/>
<line x1="288" y1="149" x2="314" y2="149" style="stroke:blue; stroke-width:1"/>
<line x1="319" y1="209" x2="319" y2="197" style="stroke:blue; stroke-width:1"/>
<line x1="319" y1="197" x2="418" y2="197" style="stroke:blue; stroke-width:1"/>
<line x1="288" y1="179" x2="288" y2="209" style="stroke:blue; stroke-width:1"/>
<line x1="288" y1="209" x2="319" y2="209" style="stroke:blue; stroke-width:1"/>
<line x1="189" y1="208" x2="189" y2="179" style="stroke:blue; stroke-width:1"/>
<line x1="189" y1="179" x2="288" y2="179" style="stroke:blue; stroke-width:1"/>
<line x1="132" y1="234" x2="132" y2="208" style="stroke:blue; stroke-width:1"/>
<line x1="132" y1="208" x2="189" y2="208" style="stroke:blue; stroke-width:1"/>
<line x1="97" y1="263" x2="97" y2="292" style="stroke:blue; stroke-width:1"/>
<line x1="97" y1="292" x2="156" y2="292" style="stroke:blue; stroke-width:1"/>
<line x1="722" y1="465" x2="722" y2="481" style="stroke:blue; stroke-width:1"/>
<line x1="722" y1="481" x2="728" y2="481" style="stroke:blue; stroke-width:1"/>
<line x1="722" y1="465" x2="722" y2="449" style="stroke:blue; stroke-width:1"/>
<line x1="722" y1="449" x2="727" y2="449" style="stroke:blue; stroke-width:1"/>
<line x1="711" y1="485" x2="711" y2="465" style="stroke:blue; stroke-width:1"/>
<line x1="711" y1="465" x2="722" y2="465" style="stroke:blue; stroke-width:1"/>
<line x1="669" y1="502" x2="669" y2="485" style="stroke:blue; stroke-width:1"/>
<line x1="669" y1="485" x2="711" y2="485" style="stroke:blue; stroke-width:1"/>
<line x1="600" y1="519" x2="600" y2="502" style="stroke:blue; stroke-width:1"/>
<line x1="600" y1="502" x2="669" y2="502" style="stroke:blue; stroke-width:1"/>
<line x1="569" y1="458" x2="569" y2="519" style="stroke:blue; stroke-width:1"/>
<line x1="569" y1="519" x2="600" y2="519" style="stroke:blue; stroke-width:1"/>
<line x1="606" y1="397" x2="606" y2="418" style="stroke:blue; stroke-width:1"/>
<line x1="606" y1="418" x2="650" y2="418" style="stroke:blue; stroke-width:1"/>
<line x1="663" y1="339" x2="663" y2="355" style="stroke:blue; stroke-width:1"/>
<line x1="663" y1="355" x2="671" y2="355" style="stroke:blue; stroke-width:1"/>
<line x1="663" y1="339" x2="663" y2="323" style="stroke:blue; stroke-width:1"/>
<line x1="663" y1="323" x2="664" y2="323" style="stroke:blue; stroke-width:1"/>
<line x1="653" y1="359" x2="653" y2="339" style="stroke:blue; stroke-width:1"/>
<line x1="653" y1="339" x2="663" y2="339" style="stroke:blue; stroke-width:1"/>
<line x1="630" y1="376" x2="630" y2="359" style="stroke:blue; stroke-width:1"/>
<line x1="630" y1="359" x2="653" y2="359" style="stroke:blue; stroke-width:1"/>
<line x1="606" y1="397" x2="606" y2="376" style="stroke:blue; stroke-width:1"/>
<line x1="606" y1="376" x2="630" y2="376" style="stroke:blue; stroke-width:1"/>
<line x1="569" y1="458" x2="569" y2="397" style="stroke:blue; stroke-width:1"/>
<line x1="569" y1="397" x2="606" y2="397" style="stroke:blue; stroke-width:1"/>
<line x1="416" y1="509" x2="416" y2="458" style="stroke:blue; stroke-width:1"/>
<line x1="416" y1="458" x2="569" y2="458" style="stroke:blue; stroke-width:1"/>
<line x1="416" y1="509" x2="416" y2="559" style="stroke:blue; stroke-width:1"/>
<line x1="416" y1="559" x2="528" y2="559" style="stroke:blue; stroke-width:1"/>
<line x1="388" y1="546" x2="388" y2="509" style="stroke:blue; stroke-width:1"/>
<line x1="388" y1="509" x2="416" y2="509" style="stroke:blue; stroke-width:1"/>
<line x1="335" y1="572" x2="335" y2="546" style="stroke:blue; stroke-width:1"/>
<line x1="335" y1="546" x2="388" y2="546" style="stroke:blue; stroke-width:1"/>
<line x1="236" y1="593" x2="236" y2="572" style="stroke:blue; stroke-width:1"/>
<line x1="236" y1="572" x2="335" y2="572" style="stroke:blue; stroke-width:1"/>
<line x1="134" y1="612" x2="134" y2="593" style="stroke:blue; stroke-width:1"/>
<line x1="134" y1="593" x2="236" y2="593" style="stroke:blue; stroke-width:1"/>
<line x1="16" y1="612" x2="16" y2="612" style="stroke:blue; stroke-width:1"/>
<line x1="16" y1="612" x2="134" y2="612" style="stroke:blue; stroke-width:1"/>
<line x1="16" y1="612" x2="16" y2="263" style="stroke:blue; stroke-width:1"/>
<line x1="16" y1="263" x2="97" y2="263" style="stroke:blue; stroke-width:1"/>
<line x1="97" y1="263" x2="97" y2="234" style="stroke:blue; stroke-width:1"/>
<line x1="97" y1="234" x2="132" y2="234" style="stroke:blue; stroke-width:1"/>
<line x1="132" y1="234" x2="132" y2="260" style="stroke:blue; stroke-width:1"/>
<line x1="132" y1="260" x2="483" y2="260" style="stroke:blue; stroke-width:1"/>
<text x="528" y="650" font-weight = "10" font-family="verdana" fill="black" font-size="15">Athaliana|AT1G70940</text>
<text x="361" y="634" font-weight = "10" font-family="verdana" fill="black" font-size="15">Mguttatus|mgv1a003446m.g</text>
<text x="581" y="618" font-weight = "10" font-family="verdana" fill="black" font-size="15">Csativus|Cucsa.068490</text>
<text x="484" y="603" font-weight = "10" font-family="verdana" fill="black" font-size="15">Cclementina|clementine0.9_005741m.g</text>
<text x="627" y="587" font-weight = "10" font-family="verdana" fill="black" font-size="15">Mtruncatula|Medtr7g106430</text>
<text x="590" y="571" font-weight = "10" font-family="verdana" fill="black" font-size="15">Ptrichocarpa|POPTR_0016s03450</text>
<text x="592" y="555" font-weight = "10" font-family="verdana" fill="black" font-size="15">Ptrichocarpa|POPTR_0006s03540</text>
<text x="661" y="540" font-weight = "10" font-family="verdana" fill="black" font-size="15">Nbenthamiana|Niben101Scf13966g00013.1</text>
<text x="719" y="524" font-weight = "10" font-family="verdana" fill="black" font-size="15">Cannuum|CA10g18860</text>
<text x="730" y="508" font-weight = "10" font-family="verdana" fill="black" font-size="15">Stuberosum|Sotub10g027260.1.1</text>
<text x="732" y="492" font-weight = "10" font-family="verdana" fill="black" font-size="15">Spimpinellifolium|Solyc10g080880</text>
<text x="733" y="477" font-weight = "10" font-family="verdana" fill="black" font-size="15">Slycopersicum.heinz|Solyc10g080880</text>
<text x="735" y="461" font-weight = "10" font-family="verdana" fill="black" font-size="15">Spennellii|Solyc10g080880</text>
<text x="743" y="445" font-weight = "10" font-family="verdana" fill="black" font-size="15">Shabrochaties|Solyc10g080880</text>
<text x="665" y="429" font-weight = "10" font-family="verdana" fill="black" font-size="15">Nbenthamiana|Niben101Scf10031g04007.1</text>
<text x="671" y="414" font-weight = "10" font-family="verdana" fill="black" font-size="15">Nbenthamiana|Niben101Scf04157g01008.1</text>
<text x="687" y="398" font-weight = "10" font-family="verdana" fill="black" font-size="15">Cannuum|CA10g21790</text>
<text x="662" y="382" font-weight = "10" font-family="verdana" fill="black" font-size="15">Stuberosum|Sotub10g020660.1.1</text>
<text x="675" y="366" font-weight = "10" font-family="verdana" fill="black" font-size="15">Slycopersicum.Heinz|Solyc10g078370.1.1</text>
<text x="676" y="351" font-weight = "10" font-family="verdana" fill="black" font-size="15">Spimpinellifolium|Solyc10g078370.1.1</text>
<text x="671" y="335" font-weight = "10" font-family="verdana" fill="black" font-size="15">Spennellii|Solyc10g078370.1.1</text>
<text x="668" y="319" font-weight = "10" font-family="verdana" fill="black" font-size="15">Shabrochaties|Solyc10g078370.1.1</text>
<text x="304" y="303" font-weight = "10" font-family="verdana" fill="black" font-size="15">Mguttatus|mgv1a003175m.g</text>
<text x="376" y="288" font-weight = "10" font-family="verdana" fill="black" font-size="15">Mguttatus|mgv1a003655m.g</text>
<text x="514" y="272" font-weight = "10" font-family="verdana" fill="black" font-size="15">Athaliana|AT1G73590</text>
<text x="560" y="256" font-weight = "10" font-family="verdana" fill="black" font-size="15">Crubella|Carubv10019970m.g</text>
<text x="449" y="240" font-weight = "10" font-family="verdana" fill="black" font-size="15">Csativus|Cucsa.111560</text>
<text x="454" y="225" font-weight = "10" font-family="verdana" fill="black" font-size="15">Cclementina|clementine0.9_005437m.g</text>
<text x="477" y="209" font-weight = "10" font-family="verdana" fill="black" font-size="15">Ptrichocarpa|POPTR_0012s04470</text>
<text x="460" y="193" font-weight = "10" font-family="verdana" fill="black" font-size="15">Ptrichocarpa|POPTR_0015s04570</text>
<text x="490" y="177" font-weight = "10" font-family="verdana" fill="black" font-size="15">Csativus|Cucsa.121930</text>
<text x="608" y="162" font-weight = "10" font-family="verdana" fill="black" font-size="15">Mtruncatula|Medtr4g154810</text>
<text x="524" y="146" font-weight = "10" font-family="verdana" fill="black" font-size="15">Mtruncatula|Medtr6g083450</text>
<text x="539" y="130" font-weight = "10" font-family="verdana" fill="black" font-size="15">Nbenthamiana|Niben101Scf08653g07017.1</text>
<text x="535" y="114" font-weight = "10" font-family="verdana" fill="black" font-size="15">Nbenthamiana|Niben101Scf07451g01004.1</text>
<text x="600" y="99" font-weight = "10" font-family="verdana" fill="black" font-size="15">Cannuum|CA03g30830</text>
<text x="589" y="83" font-weight = "10" font-family="verdana" fill="black" font-size="15">Stuberosum|Sotub03g032230.1.1</text>
<text x="586" y="67" font-weight = "10" font-family="verdana" fill="black" font-size="15">Slycopersicum.heinz|Solyc03g118740</text>
<text x="586" y="51" font-weight = "10" font-family="verdana" fill="black" font-size="15">Spimpinellifolium|Solyc03g118740</text>
<text x="586" y="36" font-weight = "10" font-family="verdana" fill="black" font-size="15">Spennellii|Solyc03g118740</text>
<text x="589" y="20" font-weight = "10" font-family="verdana" fill="black" font-size="15">Shabrochaties|Solyc03g118740</text>
<text x="564.2613110485" y="55.375" font-weight = "10" font-family="verdana" fill="magenta" font-size="13">99%</text>
<text x="562.8138691232" y="23.875" font-weight = "10" font-family="verdana" fill="magenta" font-size="13">53%</text>
<text x="555.58424519" y="39.625" font-weight = "10" font-family="verdana" fill="magenta" font-size="13">97%</text>
<text x="524.81446565377" y="59.3125" font-weight = "10" font-family="verdana" fill="magenta" font-size="13">100%</text>
<text x="485.48767029208" y="118.375" font-weight = "10" font-family="verdana" fill="magenta" font-size="13">100%</text>
<text x="486.5572422647" y="77.03125" font-weight = "10" font-family="verdana" fill="magenta" font-size="13">99%</text>
<text x="400.70623680122" y="97.703125" font-weight = "10" font-family="verdana" fill="magenta" font-size="13">100%</text>
<text x="341.03856443441" y="149.875" font-weight = "10" font-family="verdana" fill="magenta" font-size="13">48%</text>
<text x="313.87927011432" y="123.7890625" font-weight = "10" font-family="verdana" fill="magenta" font-size="13">67%</text>
<text x="353.36610183313" y="197.125" font-weight = "10" font-family="verdana" fill="magenta" font-size="13">100%</text>
<text x="286.02538970871" y="148.64453125" font-weight = "10" font-family="verdana" fill="magenta" font-size="13">42%</text>
<text x="288.60931589316" y="208.9375" font-weight = "10" font-family="verdana" fill="magenta" font-size="13">73%</text>
<text x="223.50646805778" y="178.791015625" font-weight = "10" font-family="verdana" fill="magenta" font-size="13">81%</text>
<text x="709.68105494259" y="480.625" font-weight = "10" font-family="verdana" fill="magenta" font-size="13">100%</text>
<text x="709.108793746" y="449.125" font-weight = "10" font-family="verdana" fill="magenta" font-size="13">81%</text>
<text x="701.49501972954" y="464.875" font-weight = "10" font-family="verdana" fill="magenta" font-size="13">99%</text>
<text x="675.17436821821" y="484.5625" font-weight = "10" font-family="verdana" fill="magenta" font-size="13">100%</text>
<text x="619.69414939844" y="502.28125" font-weight = "10" font-family="verdana" fill="magenta" font-size="13">100%</text>
<text x="651.75757496368" y="354.625" font-weight = "10" font-family="verdana" fill="magenta" font-size="13">100%</text>
<text x="648.0189397946" y="323.125" font-weight = "10" font-family="verdana" fill="magenta" font-size="13">90%</text>
<text x="642.62087471396" y="338.875" font-weight = "10" font-family="verdana" fill="magenta" font-size="13">100%</text>
<text x="626.31765758553" y="358.5625" font-weight = "10" font-family="verdana" fill="magenta" font-size="13">100%</text>
<text x="613.20939843932" y="417.625" font-weight = "10" font-family="verdana" fill="magenta" font-size="13">100%</text>
<text x="603.05704083867" y="376.28125" font-weight = "10" font-family="verdana" fill="magenta" font-size="13">100%</text>
<text x="569.64985232124" y="519.015625" font-weight = "10" font-family="verdana" fill="magenta" font-size="13">99%</text>
<text x="572.54795354146" y="396.953125" font-weight = "10" font-family="verdana" fill="magenta" font-size="13">100%</text>
<text x="477.61250766238" y="457.984375" font-weight = "10" font-family="verdana" fill="magenta" font-size="13">100%</text>
<text x="457.31977013435" y="559.375" font-weight = "10" font-family="verdana" fill="magenta" font-size="13">100%</text>
<text x="386.99489892241" y="508.6796875" font-weight = "10" font-family="verdana" fill="magenta" font-size="13">40%</text>
<text x="346.31749360328" y="545.83984375" font-weight = "10" font-family="verdana" fill="magenta" font-size="13">45%</text>
<text x="270.26448359305" y="572.294921875" font-weight = "10" font-family="verdana" fill="magenta" font-size="13">68%</text>
<text x="169.86393958264" y="593.3974609375" font-weight = "10" font-family="verdana" fill="magenta" font-size="13">83%</text>
<text x="60.086287996686" y="611.82373046875" font-weight = "10" font-family="verdana" fill="magenta" font-size="13">94%</text>
<text x="111.57643579181" y="291.625" font-weight = "10" font-family="verdana" fill="magenta" font-size="13">95%</text>
<text x="41.569089016619" y="262.75512695312" font-weight = "10" font-family="verdana" fill="magenta" font-size="13">62%</text>
<text x="145.29118350664" y="207.6455078125" font-weight = "10" font-family="verdana" fill="magenta" font-size="13">67%</text>
<text x="99.384022507227" y="233.88525390625" font-weight = "10" font-family="verdana" fill="magenta" font-size="13">68%</text>
<text x="292.25695112124" y="260.125" font-weight = "10" font-family="verdana" fill="magenta" font-size="13">100%</text>
</g></svg>